<?xml version="1.0" encoding="UTF-8"?>
<svg width="18px" height="18px" viewBox="0 0 18 18" version="1.1" xmlns="http://www.w3.org/2000/svg" xmlns:xlink="http://www.w3.org/1999/xlink">
    <!-- Generator: Sketch 57.1 (83088) - https://sketch.com -->
    <title>Global/Icons/20px/person-male-enclosed </title>
    <desc>Created with Sketch.</desc>
    <g id="Global/Icons/20px/person-male-enclosed-" stroke="none" stroke-width="1" fill="none" fill-rule="evenodd">
        <path d="M9.16666667,16.6666667 C10.3640302,16.6666667 11.4958592,16.3860803 12.5,15.8870725 L12.5,15.4878657 C12.5,15.2085464 12.3521892,14.9500826 12.111448,14.8084388 L10.7173279,13.9881872 C10.2083417,13.6887175 9.89583333,13.1422614 9.89583333,12.5517117 L9.89583333,12.3327066 C9.89583333,12.1037343 9.99004768,11.8848496 10.1563497,11.7274586 C10.4598292,11.4402405 10.7276349,11.0436661 10.9032699,10.640803 C10.9522672,10.5284155 11.0052647,10.3861754 11.0551731,10.2306134 C11.1589282,9.90721401 11.4485667,9.67913926 11.7872793,9.654119 C11.8945652,9.64619393 11.9791667,9.55550271 11.9791667,9.44638553 L11.9791667,8.36146188 L11.9060797,8.34821656 C11.4924193,8.27325017 11.1993736,7.90190773 11.2226236,7.48215257 C11.2265535,7.41120184 11.2311447,7.33824632 11.2372598,7.24753014 C11.2408878,7.19407619 11.2408878,7.19407619 11.2445154,7.1413824 C11.2967636,6.38269864 11.2772794,6.0844685 11.2148199,6.0030997 C10.9650338,5.6776924 10.506973,5.36000993 10.4762974,5.36893543 C9.92880546,5.52823641 9.55833661,5.41488115 9.01888823,5.1049842 C8.92064963,5.04854906 8.90526819,5.03985126 8.87221298,5.02251121 C8.83359204,5.00225151 8.82948983,5.00022298 8.85939288,5.0000219 C8.24460513,5.00402258 7.55698033,5.42264927 7.11142038,6.0030997 C7.03698417,6.100071 7.01252282,6.41922446 7.05650925,7.21784289 C7.05809626,7.24665963 7.05809626,7.24665963 7.05968694,7.27568206 C7.06560672,7.38485626 7.06802388,7.43133084 7.07107513,7.49653533 C7.09059912,7.91375762 6.79823889,8.28098407 6.38725453,8.35546547 L6.35416667,8.36146188 L6.35416667,9.44638553 C6.35416667,9.55349626 6.43585155,9.64320851 6.54059164,9.65364539 C6.87506299,9.68697395 7.15676605,9.91798225 7.25495112,10.2394501 C7.30697903,10.4097947 7.36167108,10.5592658 7.4107295,10.66827 C7.58651925,11.058862 7.85964322,11.4499531 8.16835914,11.733952 C8.3398912,11.8917505 8.4375,12.1141732 8.4375,12.3472474 L8.4375,12.5517117 C8.4375,13.1422614 8.12499161,13.6887175 7.61600546,13.9881872 L6.22188536,14.8084388 C5.98114414,14.9500826 5.83333333,15.2085464 5.83333333,15.4878657 L5.83333333,15.887067 C6.83746581,16.3860782 7.96929877,16.6666667 9.16666667,16.6666667 Z M5.37671323,13.3719634 L6.68961757,12.5994962 C6.36304061,12.224209 6.08861816,11.7916146 5.89089434,11.3522867 C5.86452437,11.2936946 5.83834954,11.2312041 5.8125558,11.1654078 C5.14706822,10.8749433 4.6875,10.2110655 4.6875,9.44638553 L4.6875,8.36146188 C4.6875,7.81202122 4.95552696,7.31623712 5.37741913,7.01082007 C5.33127455,5.95773026 5.39547208,5.501378 5.78934598,4.98826126 C6.52681392,4.02752954 7.67113929,3.33333333 8.86927695,3.33333333 C9.15074778,3.33333333 9.38657987,3.41027071 9.6464481,3.54659192 C9.70683072,3.57826733 9.7275051,3.58995815 9.84909783,3.65980954 C10.0215032,3.75885124 10.0326087,3.76224929 10.0106658,3.76863391 C10.947522,3.49604159 11.8968317,4.1544237 12.5368943,4.98826126 C12.9295068,5.49973473 12.9856478,5.94492357 12.9244235,6.98857456 C13.3644242,7.29181757 13.6458333,7.79847196 13.6458333,8.36146188 L13.6458333,9.44638553 C13.6458333,10.2262814 13.1682221,10.8997374 12.4837096,11.1811215 C12.4662134,11.2245617 12.4486335,11.2665532 12.4310577,11.3068679 C12.2326577,11.7619481 11.9582585,12.2071805 11.6302369,12.5915657 L12.9566201,13.3719634 C13.513565,13.6996503 13.9108012,14.2281022 14.0782644,14.8348203 C15.6638586,13.4596687 16.6666667,11.4302768 16.6666667,9.16666667 C16.6666667,5.02453104 13.3088023,1.66666667 9.16666667,1.66666667 C5.02453104,1.66666667 1.66666667,5.02453104 1.66666667,9.16666667 C1.66666667,11.4302751 2.66947315,13.4596655 4.25506525,14.8348203 C4.4225264,14.2281099 4.81976433,13.6996527 5.37671323,13.3719634 Z M9.16666667,18.3333333 C4.10405646,18.3333333 0,14.2292769 0,9.16666667 C0,4.10405646 4.10405646,0 9.16666667,0 C14.2292769,0 18.3333333,4.10405646 18.3333333,9.16666667 C18.3333333,14.2292769 14.2292769,18.3333333 9.16666667,18.3333333 Z" id="Icons/20/person-male-enclosed" fill="#3C4242"></path>
    </g>
</svg>